<?xml version="1.0" standalone="no"?>
<!DOCTYPE svg PUBLIC "-//W3C//DTD SVG 20010904//EN"
 "http://www.w3.org/TR/2001/REC-SVG-20010904/DTD/svg10.dtd">
<svg version="1.0" xmlns="http://www.w3.org/2000/svg"
 width="750.000000pt" height="750.000000pt" viewBox="0 0 750.000000 750.000000"
 preserveAspectRatio="xMidYMid meet">
<metadata>
Created by potrace 1.14, written by Peter Selinger 2001-2017
</metadata>
<g transform="translate(0.000000,750.000000) scale(0.100000,-0.100000)"
fill="#000000" stroke="none">
<path d="M3928 7329 c-10 -5 -18 -7 -18 -3 0 3 -7 1 -15 -6 -12 -10 -13 -16
-3 -28 11 -13 11 -14 -1 -7 -11 6 -13 4 -7 -10 5 -15 4 -16 -9 -5 -13 11 -14
10 -9 -4 4 -10 -1 -26 -12 -38 -11 -12 -13 -18 -6 -14 7 4 12 1 12 -9 0 -9 -4
-14 -9 -11 -5 3 -15 -2 -22 -11 -8 -10 -9 -14 -2 -10 6 4 14 3 18 -3 3 -5 1
-10 -5 -10 -6 0 -8 -4 -5 -10 4 -6 -1 -7 -12 -3 -10 3 -15 3 -11 -2 4 -4 2
-15 -5 -23 -8 -10 -8 -13 -1 -9 7 4 14 0 17 -8 4 -9 1 -12 -7 -9 -8 3 -17 0
-22 -7 -5 -8 -3 -10 7 -4 8 4 4 -2 -9 -15 -13 -12 -21 -29 -18 -37 5 -11 2
-13 -9 -9 -9 3 -13 2 -10 -3 3 -5 1 -13 -5 -16 -8 -5 -7 -12 2 -23 11 -13 10
-15 -4 -9 -19 7 -21 -12 -3 -25 6 -4 2 -8 -8 -8 -11 0 -15 -4 -11 -12 5 -8 1
-9 -12 -5 -18 7 -18 7 0 -8 19 -14 19 -15 2 -15 -15 0 -16 -3 -6 -15 11 -13
10 -14 -5 -9 -15 6 -16 5 -5 -17 13 -23 12 -23 -5 -9 -16 13 -18 13 -13 0 3
-8 -2 -21 -11 -28 -9 -8 -10 -11 -3 -7 6 3 12 1 12 -4 0 -6 -4 -11 -10 -11 -5
0 -10 -12 -10 -26 0 -17 -4 -23 -12 -18 -8 5 -9 2 -5 -10 5 -13 3 -17 -5 -13
-16 6 -24 -118 -8 -128 5 -3 10 -12 10 -18 0 -7 -4 -6 -10 3 -6 10 -9 6 -8
-18 1 -17 5 -29 11 -25 5 3 4 -4 -2 -15 -8 -15 -8 -23 0 -28 8 -4 7 -9 -2 -15
-11 -7 -11 -9 -1 -9 8 0 11 -9 8 -25 -3 -13 0 -28 6 -31 7 -5 8 -2 3 6 -5 8
-4 11 3 6 6 -4 8 -14 5 -23 -4 -10 -2 -14 4 -10 5 3 10 0 10 -8 0 -8 -4 -12
-9 -9 -4 3 -8 0 -8 -5 0 -6 5 -11 11 -11 8 0 7 -6 -2 -17 -8 -9 -9 -14 -3 -10
7 4 15 0 18 -9 4 -9 2 -13 -5 -8 -8 5 -8 1 0 -13 6 -11 7 -24 3 -28 -4 -5 -1
-5 6 -1 7 4 12 1 12 -8 0 -8 -6 -17 -12 -19 -8 -3 -6 -6 5 -6 9 -1 17 4 17 11
0 6 2 9 5 6 10 -10 -7 -38 -19 -31 -6 3 -2 -4 9 -16 15 -18 17 -26 8 -40 -10
-16 -9 -18 10 -15 12 2 16 2 10 -2 -18 -8 -16 -41 1 -47 9 -4 12 -14 9 -28 -5
-17 -3 -20 8 -14 12 8 12 6 0 -8 -11 -14 -11 -17 0 -17 10 0 10 -3 1 -12 -7
-7 -12 -17 -12 -23 0 -5 5 -3 10 5 7 11 10 7 10 -17 0 -20 5 -33 13 -33 9 0 9
-2 0 -8 -7 -4 -11 -17 -10 -29 0 -12 5 -19 9 -17 4 3 8 -13 8 -36 0 -25 4 -39
10 -35 6 4 10 -5 10 -20 0 -18 -4 -24 -12 -19 -10 6 -10 5 -1 -7 9 -12 10 -18
1 -27 -8 -8 -5 -9 13 -6 19 5 21 4 9 -5 -13 -10 -12 -13 5 -28 15 -12 16 -14
3 -10 -12 4 -15 2 -11 -8 3 -8 8 -13 12 -10 4 2 8 -2 8 -10 0 -8 -4 -12 -8 -9
-4 2 -10 0 -13 -5 -3 -5 4 -11 16 -14 22 -6 22 -6 3 -27 -16 -18 -17 -20 -2
-14 20 7 22 -6 5 -25 -11 -11 -10 -12 1 -6 11 6 13 4 8 -8 -3 -9 0 -23 8 -31
11 -11 12 -16 2 -20 -8 -3 -6 -10 8 -22 16 -13 17 -16 3 -11 -10 3 -20 1 -24
-5 -4 -7 -3 -8 4 -4 7 4 12 2 12 -4 0 -6 4 -9 8 -6 10 6 10 4 15 -74 1 -30 6
-60 10 -67 4 -6 1 -14 -5 -17 -7 -4 -3 -4 9 -2 22 4 22 3 5 -22 -9 -15 -12
-23 -6 -19 7 4 15 0 18 -9 9 -24 7 -31 -4 -14 -6 9 -10 10 -10 3 0 -6 7 -18
15 -26 8 -8 11 -17 8 -21 -4 -3 -7 -18 -8 -32 -1 -24 0 -24 13 -7 14 17 14 17
8 -1 -3 -10 -1 -26 6 -34 10 -12 10 -14 1 -8 -7 4 -13 2 -13 -3 0 -6 4 -11 9
-11 11 0 9 -19 -3 -39 -6 -10 -5 -12 2 -7 8 5 12 -1 12 -14 0 -12 4 -19 8 -16
5 3 9 -1 9 -9 0 -8 -4 -12 -9 -9 -4 3 -8 -2 -8 -11 0 -9 4 -14 9 -11 5 3 12
-1 15 -10 3 -8 2 -12 -4 -9 -15 9 -12 -11 4 -24 17 -14 15 -32 -4 -57 -14 -17
-14 -18 3 -5 15 12 17 10 18 -20 1 -19 0 -44 -1 -57 -1 -13 4 -30 10 -37 7 -8
10 -24 7 -35 -3 -11 1 -27 9 -34 17 -18 18 -53 2 -59 -10 -4 -10 -6 0 -6 7 -1
12 -14 12 -32 0 -19 4 -28 11 -23 7 4 7 -1 -1 -16 -8 -15 -8 -20 -1 -16 7 5
11 -5 11 -28 0 -22 5 -36 13 -36 8 0 7 -4 -3 -10 -10 -6 -11 -10 -2 -10 6 0
12 -5 12 -11 0 -5 -4 -8 -8 -5 -5 3 -9 -1 -9 -9 0 -8 3 -13 5 -10 3 3 11 0 19
-6 10 -9 10 -15 2 -25 -8 -10 -8 -14 0 -14 6 0 11 -5 11 -11 0 -5 -4 -8 -9 -5
-11 7 -8 -21 4 -31 4 -4 5 -2 0 6 -5 9 -4 12 3 7 7 -4 8 -15 3 -29 -10 -27 -3
-50 12 -40 7 4 8 0 4 -11 -5 -13 -3 -17 7 -13 10 4 13 1 9 -8 -3 -8 -10 -12
-17 -8 -6 3 -6 1 2 -8 6 -7 12 -21 12 -32 0 -11 4 -15 11 -11 6 3 4 -5 -5 -18
-17 -26 -13 -40 9 -32 16 6 9 -31 -9 -55 -8 -11 -8 -13 2 -7 6 4 12 3 12 -3 0
-6 8 -8 18 -5 9 3 6 -2 -8 -10 -14 -8 -19 -15 -12 -16 7 0 10 -5 6 -12 -4 -7
-3 -8 5 -4 6 4 8 12 5 18 -4 6 -2 8 4 4 6 -3 9 -16 7 -28 -3 -13 4 -29 20 -44
23 -21 36 -52 17 -40 -4 2 -8 -4 -8 -15 0 -18 2 -18 12 -5 6 9 16 16 21 16 6
0 16 7 23 15 10 12 16 13 29 3 14 -12 14 -11 2 5 -10 12 -17 14 -26 7 -9 -8
-14 -6 -18 4 -4 11 -1 13 10 9 10 -4 14 -2 10 4 -3 5 0 10 8 10 8 0 12 -4 9
-9 -7 -10 7 -10 24 1 11 7 10 9 -3 15 -18 6 -12 26 8 26 7 0 6 -4 -3 -10 -8
-5 -10 -10 -5 -10 6 0 16 4 23 9 11 6 10 10 -5 16 -10 5 -21 8 -25 7 -4 -1 -4
6 -1 15 5 12 3 14 -7 8 -8 -5 -11 -4 -6 3 4 6 13 9 21 5 8 -3 15 -1 15 5 0 6
-6 13 -12 15 -8 3 -5 6 5 6 11 1 15 6 11 12 -3 6 5 4 18 -5 25 -16 25 -16 21
9 -3 15 -1 25 6 25 7 0 10 -4 6 -9 -3 -6 4 -9 15 -8 11 1 20 7 20 14 0 6 5 15
12 19 7 5 8 2 3 -7 -5 -8 -5 -11 0 -7 4 4 13 3 20 -2 8 -7 12 -5 12 5 0 8 -4
12 -8 9 -4 -2 -7 4 -6 15 1 13 5 17 12 11 6 -5 17 -5 25 0 8 5 18 6 22 4 4 -3
5 3 1 13 -6 16 -5 16 10 4 15 -12 17 -12 11 3 -3 9 -1 16 5 16 6 0 11 -4 11
-10 0 -5 5 -10 11 -10 5 0 8 4 5 8 -3 5 2 9 10 9 8 0 13 -6 10 -13 -3 -8 2
-20 10 -29 12 -11 12 -15 2 -15 -8 0 -9 -3 -3 -8 6 -4 11 -22 10 -39 0 -22 5
-33 15 -34 8 -1 4 -5 -10 -9 -19 -6 -20 -8 -6 -9 15 -1 16 -4 6 -16 -11 -13
-10 -14 2 -10 9 4 15 0 15 -9 0 -8 -4 -13 -9 -10 -4 3 -8 1 -8 -4 0 -5 10 -14
23 -20 l22 -11 -23 0 c-13 -1 -21 -5 -17 -11 3 -5 13 -7 23 -4 13 5 14 4 3 -4
-9 -6 -10 -12 -2 -16 7 -4 5 -13 -6 -26 -9 -11 -19 -17 -21 -15 -3 3 1 11 7
19 9 11 9 16 0 22 -7 4 -9 3 -6 -3 7 -11 -21 -37 -46 -41 -9 -2 -17 1 -17 6 0
6 -7 13 -16 16 -13 5 -14 3 -6 -6 8 -10 4 -13 -14 -14 -13 -1 -24 2 -24 7 0 5
-5 9 -11 9 -5 0 -8 -4 -5 -8 9 -15 -35 -6 -46 9 -8 11 -9 11 -4 -3 3 -10 1
-18 -4 -18 -6 0 -10 4 -10 8 0 4 -27 7 -60 5 -37 -2 -60 1 -60 8 0 5 6 7 13 3
6 -4 8 -3 4 1 -4 5 -14 10 -23 11 -11 2 -13 -4 -9 -19 4 -12 3 -17 -2 -12 -12
14 -42 12 -52 -4 -7 -10 -9 -11 -13 0 -7 21 -50 19 -56 -3 -3 -14 -7 -16 -13
-7 -4 7 -15 14 -23 15 -9 1 -14 -1 -11 -6 3 -4 -2 -10 -10 -13 -10 -4 -12 -1
-8 11 5 14 3 14 -17 -3 -23 -19 -23 -19 -16 -1 7 20 7 20 -15 0 -12 -10 -19
-13 -15 -6 4 6 5 12 2 12 -2 0 -13 3 -23 6 -15 5 -15 4 -3 -5 13 -9 13 -11 -2
-11 -9 0 -19 6 -21 13 -4 10 -6 10 -6 0 -1 -7 -6 -13 -12 -13 -5 0 -7 6 -4 13
4 6 -1 3 -9 -7 -9 -11 -16 -14 -16 -8 0 14 -21 12 -32 -3 -5 -6 -8 -3 -8 7 0
15 -3 15 -27 3 -21 -11 -29 -12 -35 -2 -6 9 -10 9 -17 -2 -11 -16 -34 -5 -24
12 3 7 -2 5 -13 -4 -13 -11 -33 -15 -62 -13 -32 3 -41 1 -36 -9 6 -8 3 -8 -9
1 -9 8 -25 11 -38 7 -14 -5 -19 -3 -15 3 4 7 -4 8 -26 1 -41 -11 -41 -11 -32
4 5 8 2 8 -9 -2 -12 -9 -17 -10 -17 -2 0 7 -5 9 -10 6 -6 -4 -8 -11 -5 -16 3
-5 -1 -6 -9 -3 -9 3 -14 9 -11 14 2 4 -7 5 -20 2 -14 -2 -25 -8 -25 -13 0 -5
-4 -9 -10 -9 -5 0 -7 8 -4 18 5 16 4 16 -9 -1 -11 -13 -16 -15 -19 -5 -4 10
-10 10 -29 2 -28 -13 -52 -7 -43 9 4 7 -1 4 -11 -5 -16 -15 -20 -15 -41 -2
-17 12 -24 12 -30 3 -4 -7 -3 -9 4 -5 6 3 13 3 16 -2 7 -12 -53 -7 -65 5 -12
12 -42 6 -35 -6 6 -9 -87 -6 -102 3 -6 3 -13 2 -17 -4 -3 -5 -16 -10 -28 -10
-16 0 -18 3 -9 9 11 7 10 9 -3 14 -9 4 -13 3 -10 -2 8 -15 -15 -25 -28 -12
-13 13 -31 15 -23 2 3 -4 -6 -6 -19 -3 -14 2 -22 8 -19 13 3 5 -1 6 -9 3 -18
-6 -32 12 -17 21 6 4 8 11 5 16 -4 5 -1 9 6 9 8 0 7 5 -4 13 -16 12 -18 39 -4
53 10 10 9 26 -1 20 -5 -3 -9 1 -9 9 0 8 4 12 9 9 11 -7 10 -1 -2 31 -9 24 -8
26 7 21 16 -6 16 -6 0 12 -9 10 -17 23 -17 28 0 5 4 2 10 -6 6 -10 9 -6 8 16
-1 17 3 37 7 44 6 9 4 12 -7 8 -8 -4 -15 0 -15 8 0 7 4 11 8 9 4 -3 9 2 13 10
3 10 -1 15 -12 16 -14 0 -14 2 2 8 18 7 18 8 2 14 -11 4 -14 12 -9 19 10 17
15 38 14 66 -1 15 3 21 11 16 7 -5 8 -3 4 5 -5 7 -15 10 -24 6 -14 -5 -14 -4
1 13 13 15 14 21 4 32 -8 9 -8 11 0 6 6 -3 15 -1 19 5 5 8 3 9 -6 4 -10 -6
-12 -3 -8 13 4 15 2 20 -5 15 -7 -4 -5 2 3 12 11 14 12 19 3 22 -7 3 -13 9
-13 15 0 6 7 8 15 5 8 -4 17 -1 21 5 5 7 2 8 -6 3 -10 -6 -12 -4 -7 8 3 9 1
19 -5 23 -7 4 -5 10 6 16 15 8 14 11 -2 35 -16 25 -16 27 0 21 12 -5 15 -3 11
7 -3 8 -9 12 -14 9 -5 -3 -9 0 -9 5 0 6 7 11 16 11 8 0 12 5 9 10 -4 6 -10 8
-14 6 -4 -3 -7 6 -7 19 0 13 4 21 8 19 5 -3 5 -10 2 -16 -4 -6 -2 -8 4 -5 14
10 7 43 -9 39 -9 -2 -9 1 1 13 16 20 23 48 9 39 -5 -3 -9 0 -9 5 0 6 6 11 13
11 7 0 8 3 2 8 -16 11 -11 67 6 64 11 -2 11 0 -1 10 -17 15 -20 32 -6 45 5 4
6 3 2 -4 -3 -6 -2 -14 3 -18 6 -3 8 4 6 16 -3 13 -10 26 -17 31 -9 5 -5 8 12
9 23 0 23 1 5 9 -11 5 -14 9 -6 9 11 1 11 4 0 18 -8 10 -9 14 -2 10 9 -5 10 2
6 27 -3 19 -1 36 6 40 6 4 11 13 11 19 0 7 -4 6 -11 -3 -8 -11 -9 -6 -4 20 12
61 12 105 1 113 -8 5 -6 10 4 18 12 8 12 12 2 16 -10 4 -9 9 4 24 17 19 17 20
-1 13 -14 -6 -16 -4 -9 7 14 22 16 51 3 43 -7 -4 -10 -1 -7 7 3 8 10 13 16 12
6 -1 7 10 2 32 -7 29 -5 35 9 36 9 1 6 4 -9 9 -14 4 -19 8 -12 9 7 1 10 5 7
11 -4 6 1 7 12 4 16 -5 16 -4 2 8 -16 14 -14 38 5 50 7 5 3 8 -9 8 -11 0 -15
4 -10 8 12 8 13 37 2 48 -4 4 -2 13 4 20 6 8 7 14 0 18 -6 4 -8 13 -5 21 4 8
10 12 15 9 17 -10 9 15 -8 26 -17 11 -17 11 0 6 9 -3 17 -1 17 4 0 6 -4 10
-10 10 -5 0 -10 5 -10 11 0 5 4 8 8 5 5 -3 9 1 9 9 0 8 -4 15 -8 15 -4 0 -6
11 -5 25 0 15 6 23 13 21 13 -6 7 20 -11 43 -9 12 -8 13 3 7 9 -6 12 -5 9 5
-3 8 -1 24 3 37 7 17 5 22 -9 23 -14 0 -14 2 3 9 11 5 14 9 7 9 -9 1 -10 6 -4
19 11 21 4 45 -10 36 -7 -5 -8 -2 -4 5 5 7 15 10 25 7 14 -5 14 -5 0 6 -11 9
-14 21 -8 40 5 18 2 34 -9 49 -8 12 -10 19 -4 15 7 -4 12 -1 12 8 0 9 -4 16
-9 16 -5 0 -12 7 -15 16 -5 14 -4 15 9 4 13 -11 14 -10 9 3 -3 9 -14 15 -24
14 -10 -1 -16 -5 -14 -9 3 -4 0 -8 -5 -8 -6 0 -11 6 -11 13 -1 7 -6 5 -14 -6
-16 -21 -56 -31 -57 -14 0 7 -4 2 -9 -10 -6 -15 -15 -20 -30 -16 -16 4 -19 2
-13 -12 5 -14 3 -16 -8 -9 -25 15 -38 13 -34 -8 4 -16 2 -18 -10 -8 -11 9 -15
9 -15 1 0 -6 -5 -11 -11 -11 -5 0 -7 6 -4 13 4 6 -3 1 -15 -13 -12 -14 -18
-18 -14 -10 6 12 5 13 -7 3 -9 -7 -24 -14 -35 -17 -45 -10 -62 -19 -72 -39
-10 -22 -11 -22 -12 3 l-1 25 -10 -23 c-7 -18 -14 -22 -30 -17 -15 5 -19 4
-14 -4 4 -8 -2 -10 -20 -7 -22 4 -24 2 -15 -9 9 -11 7 -12 -11 -8 -17 5 -20 3
-14 -8 5 -8 4 -11 -1 -6 -9 8 -10 12 -12 54 -2 16 -7 21 -19 17 -10 -3 -7 2 7
10 16 10 19 15 10 16 -13 0 -13 1 0 10 10 6 11 10 3 10 -7 0 -13 5 -13 11 0 5
4 8 8 5 5 -3 9 1 9 9 0 8 -4 15 -9 15 -4 0 -8 5 -8 11 0 5 5 7 11 4 6 -5 9 10
6 44 -1 28 1 51 5 51 5 0 4 9 -1 19 -8 14 -7 20 5 25 13 5 12 9 -3 33 -16 24
-16 26 -1 21 14 -6 15 -4 3 19 -12 23 -12 28 2 38 12 9 13 14 3 20 -10 6 -9 9
1 16 10 6 11 9 2 9 -7 0 -13 5 -13 11 0 5 4 8 8 5 5 -3 9 1 9 9 0 8 -4 12 -9
9 -4 -3 -8 0 -8 5 0 6 5 11 11 11 6 0 7 5 2 13 -12 19 -13 40 -1 54 8 10 7 13
-3 13 -11 0 -11 2 1 10 12 8 12 10 1 10 -11 0 -11 3 0 17 8 9 9 14 3 10 -6 -3
-11 0 -11 8 0 8 3 12 7 10 4 -2 7 2 7 10 0 8 -4 12 -9 9 -4 -3 -8 2 -8 11 0 9
4 13 10 10 6 -3 10 -1 10 4 0 6 -6 11 -12 11 -9 0 -8 4 2 10 12 8 12 10 1 10
-11 0 -11 3 0 17 12 15 12 16 -1 8 -13 -7 -13 -6 -2 7 10 13 10 17 0 21 -10 4
-10 6 0 6 6 1 12 6 12 12 0 5 -6 7 -12 4 -7 -4 -6 -1 2 7 17 14 15 75 -2 96
-8 9 -7 11 3 7 12 -4 14 3 11 35 -3 26 -8 38 -16 33 -6 -3 -6 -1 2 8 16 17 16
53 0 43 -8 -5 -9 -2 -5 9 3 9 1 19 -5 23 -7 4 -8 3 -4 -4 4 -7 2 -12 -3 -12
-6 0 -11 6 -11 13 0 8 -4 7 -10 -3 -9 -13 -10 -13 -10 0 0 13 -1 13 -10 0 -6
-9 -5 -17 3 -23 9 -6 8 -7 -3 -6 -32 3 -40 -2 -40 -23 0 -19 -2 -20 -10 -8 -8
12 -10 10 -10 -8 0 -13 -4 -21 -9 -17 -6 3 -8 -7 -5 -22 3 -18 1 -23 -4 -15
-7 10 -12 9 -23 -4 -12 -15 -12 -17 0 -9 10 5 12 4 7 -3 -4 -7 -15 -12 -24
-12 -14 0 -14 -2 -3 -9 11 -7 9 -10 -8 -16 -13 -4 -20 -9 -17 -12 3 -4 -2 -12
-12 -20 -11 -10 -12 -12 -2 -8 10 4 9 2 -2 -8 -10 -8 -14 -18 -10 -23 4 -4 -1
-2 -11 5 -15 12 -17 12 -11 -4 6 -14 4 -16 -7 -10 -12 7 -12 6 -1 -7 12 -14
10 -16 -10 -11 -18 4 -20 3 -8 -6 12 -8 12 -11 1 -11 -7 0 -11 -6 -8 -14 4
-10 1 -13 -7 -10 -8 3 -17 0 -22 -7 -4 -7 -3 -10 3 -6 5 3 10 0 10 -8 0 -10
-5 -11 -19 -4 -10 5 -18 6 -17 2 4 -26 -2 -43 -13 -37 -9 6 -9 3 0 -9 12 -14
11 -16 -7 -12 -13 2 -18 -1 -15 -10 3 -7 0 -16 -7 -21 -8 -5 -10 -3 -4 6 5 9
4 11 -4 6 -9 -6 -9 -11 0 -22 7 -9 8 -14 3 -12 -12 4 -54 -38 -46 -46 3 -3 1
-6 -5 -6 -6 0 -13 -9 -16 -21 -4 -13 -10 -18 -18 -13 -8 4 -10 3 -5 -4 4 -7 2
-12 -3 -12 -6 0 -11 -10 -11 -22 0 -19 -2 -20 -10 -8 -8 12 -10 10 -10 -8 0
-15 -4 -21 -12 -16 -8 5 -9 0 -5 -15 5 -19 3 -20 -11 -9 -12 10 -14 10 -8 1 4
-8 2 -13 -5 -13 -9 0 -9 -3 0 -14 10 -12 8 -13 -8 -9 -16 4 -21 1 -21 -13 -1
-23 -24 -56 -33 -47 -4 3 -7 -3 -7 -14 0 -11 -8 -27 -17 -34 -14 -12 -16 -12
-8 0 5 9 4 12 -3 7 -6 -3 -9 -16 -7 -28 3 -11 2 -18 -1 -15 -7 7 -44 -29 -44
-43 0 -6 -5 -9 -12 -8 -12 3 -14 -2 -17 -37 0 -9 -11 -20 -23 -25 -14 -5 -17
-9 -8 -10 9 -1 5 -5 -9 -11 -14 -5 -21 -15 -18 -23 3 -8 -1 -17 -9 -20 -10 -4
-12 -2 -8 6 4 7 3 8 -4 4 -6 -4 -8 -14 -5 -22 4 -10 -2 -17 -16 -21 -11 -3
-19 -8 -17 -12 2 -3 -3 -15 -11 -26 -13 -17 -15 -17 -10 -2 6 15 4 16 -13 7
-11 -6 -20 -13 -20 -16 0 -3 4 -2 10 1 6 3 10 -4 10 -17 0 -18 -2 -20 -10 -8
-9 14 -14 7 -11 -13 1 -5 -3 -6 -8 -3 -5 3 -15 -2 -22 -11 -8 -9 -9 -14 -4
-11 6 4 12 -3 12 -15 1 -12 -1 -17 -5 -12 -9 13 -35 18 -28 6 4 -5 2 -12 -4
-16 -5 -3 -10 -19 -10 -35 0 -16 -5 -32 -12 -36 -7 -5 -8 -3 -3 6 5 9 4 11 -4
6 -9 -6 -9 -11 0 -22 9 -11 9 -14 0 -14 -7 0 -9 -5 -5 -12 5 -8 2 -9 -11 -4
-18 6 -18 6 1 -15 10 -12 14 -20 9 -16 -6 3 -17 2 -25 -4 -10 -6 -11 -9 -2 -9
6 0 12 -5 12 -11 0 -5 -5 -7 -10 -4 -5 3 -10 2 -10 -4 0 -5 6 -12 13 -14 8 -4
4 -13 -13 -27 -14 -12 -19 -19 -12 -15 6 3 12 1 12 -4 0 -6 -4 -11 -9 -11 -5
0 -8 -11 -8 -25 0 -14 -9 -35 -19 -46 -16 -18 -16 -19 -1 -13 16 6 16 3 6 -20
-7 -14 -17 -26 -23 -26 -6 0 -4 -5 4 -10 13 -8 13 -10 1 -10 -11 0 -12 -3 -3
-12 8 -8 8 -17 1 -30 -5 -10 -7 -24 -3 -31 5 -6 -1 -5 -11 3 -10 8 -16 10 -12
4 9 -16 17 -65 9 -60 -4 2 -13 -2 -20 -10 -7 -8 -8 -14 -2 -14 5 0 10 -5 10
-11 0 -5 -4 -8 -8 -5 -5 3 -9 -1 -9 -9 0 -8 5 -15 11 -15 5 0 1 -7 -10 -16
-10 -8 -13 -13 -6 -9 6 3 12 1 12 -4 0 -6 -4 -11 -10 -11 -5 0 -10 -5 -10 -11
0 -5 5 -7 10 -4 14 9 12 -8 -2 -24 -9 -10 -9 -12 -1 -7 6 3 14 2 18 -4 3 -5 2
-10 -2 -10 -11 0 -9 -47 2 -57 4 -5 5 -2 1 4 -5 9 -2 11 10 6 11 -4 13 -8 6
-11 -14 -4 -17 -62 -3 -62 15 0 23 -32 11 -44 -8 -8 -9 -6 -5 5 4 10 2 19 -3
23 -5 3 -8 -5 -7 -16 1 -12 10 -25 21 -29 14 -6 15 -8 4 -9 -8 -2 -18 -2 -22
-1 -12 2 -9 -6 8 -24 13 -12 14 -18 4 -31 -11 -12 -10 -13 2 -9 10 4 17 -1 21
-14 3 -12 2 -19 -3 -16 -4 3 -10 -1 -13 -8 -6 -16 17 -49 28 -39 4 4 3 -3 -4
-15 -13 -26 -14 -44 -1 -23 8 12 10 10 10 -8 0 -15 -4 -21 -12 -16 -7 5 -8 3
-4 -5 5 -7 15 -10 25 -7 14 5 14 4 1 -6 -8 -7 -14 -20 -14 -28 1 -8 2 -21 3
-28 0 -7 6 -10 11 -7 6 3 10 1 10 -4 0 -6 -5 -11 -12 -11 -6 0 -3 -7 8 -16 19
-15 19 -16 -1 -9 -16 5 -18 4 -8 -6 7 -7 13 -24 13 -38 0 -21 2 -23 10 -11 5
8 10 10 10 4 0 -6 -3 -14 -7 -18 -11 -10 -12 -37 -2 -30 5 3 9 -10 9 -28 0
-19 6 -40 13 -47 6 -8 7 -11 1 -8 -7 4 -11 -7 -11 -31 0 -20 2 -31 5 -24 2 6
8 12 13 12 4 0 6 -7 3 -15 -4 -8 0 -23 7 -32 10 -12 10 -15 2 -9 -8 4 -13 2
-13 -7 0 -8 7 -18 16 -21 13 -5 14 -9 4 -21 -9 -10 -9 -15 -1 -15 6 0 11 -5
11 -11 0 -5 -4 -7 -10 -4 -6 3 -7 -1 -4 -9 3 -9 11 -13 18 -9 6 3 8 3 4 -2 -4
-4 -3 -14 4 -22 8 -10 8 -12 -4 -8 -9 4 -15 0 -15 -9 0 -8 4 -13 8 -11 4 3 10
-2 13 -11 3 -8 2 -12 -3 -9 -5 3 -12 1 -16 -5 -3 -5 1 -10 10 -10 13 0 14 -4
4 -22 -11 -20 -10 -21 3 -11 12 10 15 10 15 -5 0 -9 -4 -20 -9 -23 -13 -8 2
-40 16 -33 6 3 2 -2 -9 -12 -17 -14 -17 -16 -3 -11 10 4 18 2 18 -4 0 -6 5 -7
12 -3 7 4 8 3 4 -5 -4 -6 -11 -9 -14 -7 -4 2 -7 -11 -7 -29 0 -23 3 -31 11
-24 11 9 14 -4 15 -64 0 -11 5 -15 12 -10 7 4 7 0 -1 -10 -8 -9 -12 -22 -9
-29 4 -8 6 -7 6 5 1 9 5 17 9 17 4 0 7 -16 7 -35 -1 -20 3 -39 8 -42 6 -4 7
-1 2 7 -5 9 -4 11 4 6 9 -6 9 -11 -1 -23 -11 -14 -10 -15 12 -8 24 7 24 7 5
-9 -11 -8 -15 -16 -9 -16 7 0 14 -9 17 -19 4 -15 1 -18 -11 -13 -14 5 -15 4
-2 -10 8 -8 22 -13 30 -11 9 3 11 2 5 -4 -14 -11 -18 -43 -5 -43 5 0 10 -5 10
-11 0 -5 -4 -8 -8 -5 -12 7 -8 -39 5 -55 14 -17 14 -21 3 -58 -7 -25 -6 -29 8
-25 13 5 13 2 -2 -10 -19 -16 -19 -16 3 -16 23 0 23 -1 6 -26 -9 -15 -13 -24
-7 -20 5 3 12 -1 16 -9 3 -8 -3 -19 -12 -24 -13 -8 -13 -10 -3 -11 11 0 10 -4
-4 -13 -13 -10 -15 -16 -6 -21 9 -6 7 -12 -6 -23 -10 -8 -12 -12 -5 -8 20 10
14 -5 -10 -27 -13 -11 -17 -16 -10 -13 10 5 13 2 10 -11 -2 -11 -10 -18 -17
-16 -7 1 -10 -2 -6 -8 3 -6 10 -8 14 -6 4 3 8 -2 8 -10 0 -8 -6 -13 -13 -10
-8 3 -12 -4 -10 -22 4 -35 -3 -54 -18 -45 -6 3 -5 0 2 -8 11 -12 14 -12 23 1
9 12 10 12 5 -3 -3 -10 -2 -27 4 -37 7 -13 6 -21 -5 -30 -17 -14 -10 -34 8
-24 7 3 4 -1 -6 -9 -18 -15 -14 -52 5 -41 6 4 5 -3 -1 -15 -9 -16 -9 -21 1
-21 8 0 9 -3 3 -8 -14 -10 -19 -46 -6 -37 11 6 15 -7 12 -34 -2 -8 2 -10 11
-5 10 6 10 4 -1 -9 -7 -9 -10 -17 -5 -17 5 0 2 -5 -6 -10 -13 -8 -12 -10 3
-10 9 0 17 -5 17 -11 0 -5 -6 -7 -12 -3 -7 4 -4 -3 7 -16 11 -13 14 -20 7 -16
-6 4 -12 3 -12 -3 0 -5 8 -15 18 -20 16 -10 16 -10 -1 -11 -10 0 -15 -5 -12
-10 4 -6 10 -8 14 -6 4 3 8 -4 8 -15 1 -11 -2 -17 -6 -15 -4 3 -8 -1 -8 -9 0
-8 4 -12 9 -9 4 3 8 -4 8 -16 0 -13 4 -19 11 -14 8 5 9 2 1 -11 -6 -12 -6 -26
-1 -37 5 -10 14 -27 19 -38 13 -25 13 -40 0 -20 -8 13 -10 12 -10 -2 0 -10 5
-18 10 -18 6 0 10 -7 10 -15 0 -8 -6 -15 -12 -15 -9 0 -8 -3 2 -10 9 -5 13
-22 12 -45 -2 -25 1 -34 9 -30 8 6 8 2 0 -13 -14 -25 -14 -43 -1 -22 8 12 10
10 11 -10 1 -14 0 -33 -1 -44 -1 -10 4 -23 12 -27 10 -7 10 -9 1 -9 -7 0 -13
-5 -13 -11 0 -5 6 -7 13 -3 8 5 8 2 -2 -9 -12 -15 -11 -17 2 -17 10 0 14 -6
11 -15 -4 -8 -11 -12 -17 -8 -6 4 -1 -8 12 -25 16 -23 18 -30 7 -26 -12 5 -15
2 -10 -10 3 -9 10 -16 15 -16 5 0 9 -5 9 -11 0 -5 -4 -8 -8 -5 -4 2 -8 -4 -8
-15 0 -10 4 -19 9 -19 5 0 3 -8 -4 -17 -12 -15 -12 -16 3 -10 10 3 20 2 23 -4
4 -5 1 -8 -6 -7 -6 2 -14 -3 -16 -10 -3 -8 1 -10 14 -6 15 6 16 4 6 -7 -15
-15 -18 -43 -4 -34 5 3 12 1 15 -4 4 -5 1 -13 -5 -17 -8 -5 -9 -3 -4 7 5 8 4
10 0 6 -14 -12 -15 -39 -1 -34 7 3 13 -1 13 -9 0 -7 -4 -11 -8 -9 -4 3 -10 -2
-13 -11 -3 -8 -2 -13 3 -10 5 3 12 -1 15 -10 9 -23 8 -26 -6 -19 -7 4 -4 -1 6
-9 18 -15 15 -20 -9 -17 -5 1 -3 -4 5 -11 9 -7 14 -22 12 -33 -3 -17 -1 -18 8
-5 10 12 11 12 5 -5 -12 -37 -14 -55 -5 -60 5 -3 7 4 5 15 -2 11 0 18 5 15 9
-6 8 -31 -3 -41 -11 -11 -8 -26 3 -19 6 4 7 -1 3 -10 -3 -10 0 -21 8 -27 10
-7 8 -8 -9 -5 -19 5 -21 3 -11 -9 6 -7 15 -12 18 -9 4 2 8 -2 8 -10 0 -8 -3
-12 -7 -10 -4 2 -7 -2 -7 -10 0 -8 4 -12 8 -10 9 6 17 -16 12 -33 -3 -6 -9
-10 -14 -6 -5 3 -9 3 -9 -1 0 -3 10 -10 23 -15 17 -7 18 -9 4 -9 -15 -1 -16
-4 -6 -23 7 -13 17 -27 23 -31 7 -6 5 -7 -6 -4 -28 9 -28 -4 0 -42 25 -34 25
-35 3 -16 l-24 20 13 -25 c7 -14 18 -28 24 -32 8 -5 7 -8 -1 -8 -7 0 -13 -8
-13 -17 0 -15 2 -16 10 -3 5 8 10 10 10 5 0 -6 -6 -17 -12 -24 -10 -11 -10
-13 0 -7 16 9 16 -6 0 -23 -11 -10 -10 -11 5 -5 13 5 16 2 11 -10 -3 -9 -11
-13 -18 -9 -6 3 -3 -3 7 -14 9 -11 14 -23 11 -26 -4 -4 -1 -14 7 -24 8 -9 9
-14 3 -10 -7 4 -15 0 -18 -9 -4 -10 -2 -13 6 -8 7 5 9 -1 6 -20 -3 -15 0 -33
6 -39 10 -11 13 -32 6 -39 -7 -8 -6 -48 1 -48 14 0 11 -28 -3 -33 -9 -4 -8 -6
3 -6 11 -1 15 -10 13 -36 -2 -20 0 -34 4 -31 4 3 9 -4 9 -15 1 -10 -3 -19 -8
-19 -6 0 -7 5 -3 12 5 7 3 8 -5 4 -9 -6 -9 -12 3 -25 9 -10 16 -22 16 -27 0
-5 -5 -2 -10 6 -6 9 -10 10 -10 3 0 -6 5 -15 10 -18 6 -3 10 -11 10 -16 0 -6
-6 -7 -12 -3 -10 6 -10 4 0 -8 7 -9 12 -25 10 -35 -2 -11 2 -17 12 -15 11 2
11 -1 -3 -12 -18 -14 -14 -46 7 -46 6 0 4 -5 -4 -10 -8 -5 -10 -10 -4 -10 15
0 24 -60 10 -61 -6 0 -2 -4 9 -9 11 -5 14 -9 8 -9 -15 -1 -18 -41 -3 -41 6 0
10 -16 10 -36 0 -19 4 -33 8 -30 5 3 9 -1 9 -9 0 -8 -4 -12 -9 -9 -4 3 -8 1
-8 -5 0 -5 5 -11 12 -13 7 -3 11 -19 10 -42 -2 -28 0 -36 10 -30 7 4 5 -2 -6
-14 -17 -20 -17 -22 -2 -28 9 -3 16 -16 16 -28 0 -17 -2 -18 -10 -6 -6 9 -10
10 -10 3 0 -6 10 -19 23 -29 13 -10 15 -14 5 -11 -9 3 -19 0 -22 -8 -3 -9 0
-12 10 -8 10 4 12 0 8 -11 -4 -10 -1 -16 7 -16 11 0 11 -3 -1 -11 -11 -8 -12
-12 -2 -16 6 -2 12 -11 12 -19 0 -9 -4 -12 -10 -9 -5 3 -10 1 -10 -4 0 -6 9
-11 19 -11 14 0 18 -5 14 -20 -4 -14 0 -20 11 -20 9 0 16 -5 16 -11 0 -8 6 -7
17 2 11 10 14 10 9 2 -4 -8 -2 -13 5 -13 6 0 9 8 7 18 -3 11 0 19 8 19 7 0 11
-4 8 -9 -3 -4 2 -5 10 -2 8 3 13 14 11 25 -2 10 1 22 7 25 7 4 8 2 4 -4 -4 -7
-2 -12 3 -12 15 0 14 13 -1 29 -10 11 -10 13 0 7 7 -5 12 -1 12 10 0 14 3 14
15 4 13 -11 14 -10 9 4 -3 9 -11 16 -18 17 -6 1 0 5 14 9 21 7 22 8 5 9 -16 2
-14 5 10 16 23 10 25 14 11 14 -20 1 -20 1 0 15 10 8 16 18 12 22 -4 4 -1 12
8 18 8 6 16 21 17 33 0 12 5 19 9 17 4 -3 9 2 9 10 2 24 4 29 17 54 7 12 11
26 8 31 -3 5 2 15 11 22 14 12 16 12 8 0 -5 -9 -4 -12 3 -7 6 4 8 14 5 23 -5
12 -3 14 7 8 9 -6 11 -4 5 6 -21 33 -5 64 17 34 5 -6 8 -6 8 2 0 7 -8 17 -18
23 -16 11 -16 11 1 6 15 -5 22 4 18 27 0 4 2 6 6 6 21 -3 33 2 28 12 -4 6 3
13 15 16 16 4 18 8 8 14 -10 7 -10 9 0 9 6 0 12 9 12 21 0 13 4 18 12 13 8 -5
9 0 6 14 -4 15 0 25 10 32 14 8 14 9 2 10 -9 0 -11 3 -5 8 16 12 36 52 30 61
-3 5 2 11 10 15 8 3 15 11 15 18 0 9 -3 8 -10 -2 -8 -13 -10 -12 -10 3 0 9 5
17 11 17 5 0 8 4 4 9 -3 6 3 14 12 20 14 8 15 10 3 11 -12 0 -13 2 -1 9 7 5
11 15 9 22 -3 8 2 20 11 27 14 12 14 13 -1 8 -12 -3 -15 -1 -11 9 3 8 10 12
16 8 6 -4 8 0 4 10 -4 11 -1 17 8 17 21 0 19 20 -2 21 -15 0 -15 2 -3 7 16 7
19 17 26 66 2 17 10 33 17 38 9 5 12 17 9 34 -4 21 -2 25 9 19 12 -8 12 -6 0
9 -11 13 -12 19 -2 29 10 9 11 8 6 -8 -6 -19 -6 -19 5 -1 10 15 9 20 -1 27
-13 8 -6 13 13 10 5 0 7 2 7 7 -4 22 2 52 9 48 5 -3 9 1 9 9 0 8 -4 12 -9 9
-4 -3 -8 0 -8 5 0 11 15 15 35 11 6 -1 4 4 -2 11 -16 16 -17 39 -2 39 5 0 7
-6 3 -13 -4 -6 -3 -9 1 -4 5 4 10 18 12 30 2 15 0 18 -5 9 -6 -8 -9 -3 -9 17
l0 29 19 -21 18 -22 -10 29 c-9 24 -8 27 4 23 9 -4 18 -2 21 4 4 5 2 8 -3 7
-10 -3 -12 1 -12 28 0 8 4 13 9 9 5 -3 13 -1 16 5 4 6 3 10 -2 9 -24 -4 -25 3
-3 16 14 8 19 14 13 15 -19 0 -16 18 7 42 11 12 20 27 20 32 0 6 -5 4 -10 -4
-6 -9 -10 -10 -10 -3 0 6 5 15 10 18 6 3 10 11 10 16 0 6 -5 7 -12 3 -7 -4 -8
-3 -4 4 4 7 15 12 24 12 15 0 15 2 2 10 -10 6 -11 10 -2 10 6 0 12 5 12 11 0
5 -4 7 -10 4 -5 -3 -10 -4 -10 0 0 3 10 10 23 15 19 8 20 9 3 9 -19 1 -19 1
-1 14 10 8 15 19 11 25 -4 7 -2 12 3 12 6 0 11 5 11 11 0 5 -5 7 -12 3 -7 -5
-8 -3 -4 5 5 7 13 10 20 8 7 -3 12 9 13 32 1 20 9 41 18 48 10 6 14 16 10 22
-3 6 -1 11 4 11 6 0 11 5 11 11 0 5 -6 7 -12 3 -9 -5 -9 -3 1 9 7 9 18 14 25
10 6 -3 8 -3 4 1 -4 5 -3 19 3 33 6 16 5 22 -1 18 -6 -3 -7 1 -4 9 3 9 10 13
15 10 9 -5 13 9 10 35 -2 8 2 10 11 5 10 -6 10 -4 -1 9 -12 15 -11 17 2 17 9
0 19 5 23 12 4 6 3 8 -4 4 -6 -3 -13 -2 -17 4 -3 5 -2 10 4 10 5 0 13 9 16 20
4 11 11 17 17 14 7 -5 8 -2 3 5 -5 9 -10 10 -18 2 -6 -6 -16 -11 -21 -11 -6 0
-3 5 7 11 9 6 15 15 11 21 -4 6 2 8 17 4 13 -3 18 -3 12 0 -7 3 -13 10 -13 15
0 6 6 7 13 3 7 -5 6 0 -3 11 -12 15 -12 17 -1 10 11 -6 13 -4 8 9 -5 13 -3 17
6 13 8 -3 14 1 14 9 0 7 -5 10 -11 7 -6 -4 -5 0 1 9 7 8 9 19 5 23 -4 5 1 5
11 2 10 -4 16 -3 12 2 -3 5 0 13 6 17 9 5 7 11 -6 21 -17 12 -18 13 -1 13 10
0 14 4 10 12 -5 7 -2 9 8 5 12 -4 14 -1 11 14 -3 10 -10 16 -16 12 -6 -4 -7
-1 -3 6 5 7 14 10 20 8 7 -3 13 1 13 9 0 7 -4 11 -8 9 -4 -3 -6 3 -5 12 2 9 8
19 14 21 6 2 9 9 6 16 -3 7 5 18 18 25 13 6 15 9 6 7 -12 -4 -15 -1 -11 10 3
7 10 14 15 14 6 0 5 7 -2 15 -11 13 -10 14 4 9 10 -4 16 -1 17 10 3 36 5 41
18 38 7 -1 10 2 6 8 -3 6 -12 7 -18 3 -8 -5 -8 -2 0 9 7 8 10 18 6 21 -3 4 -1
7 5 7 6 0 9 7 5 17 -4 11 -3 14 6 9 8 -5 12 -3 10 5 -4 36 1 51 18 45 14 -6
14 -4 -2 14 -11 12 -15 21 -10 20 21 -5 29 1 15 10 -9 6 -10 10 -3 10 7 0 17
10 24 21 9 17 8 20 -3 13 -11 -6 -11 -5 0 8 7 9 12 20 11 24 -3 21 2 35 11 29
6 -3 10 1 10 10 0 10 -5 13 -12 9 -7 -4 -8 -3 -4 5 4 6 12 9 17 6 5 -4 12 1
15 9 3 9 11 13 16 10 6 -4 5 -10 -3 -15 -8 -5 -9 -9 -3 -9 6 0 17 7 24 15 14
17 30 20 30 4 0 -5 -4 -7 -10 -4 -5 3 -10 1 -10 -4 0 -14 17 -14 25 -1 3 6 11
10 16 10 6 0 8 -4 5 -8 -2 -4 5 -9 17 -9 15 -2 18 0 8 6 -9 6 -5 10 13 13 15
3 29 1 32 -4 3 -4 11 -5 17 -1 22 13 47 10 47 -6 0 -10 3 -12 8 -5 4 6 20 10
35 9 21 -2 27 2 22 13 -4 12 -3 13 10 2 8 -7 15 -9 15 -4 0 5 4 3 9 -5 6 -8
14 -10 22 -5 20 12 38 14 45 3 3 -5 13 -5 25 1 11 6 23 8 28 5 5 -3 12 1 14 7
3 8 6 6 6 -4 1 -11 6 -15 16 -12 8 4 13 10 10 14 -6 9 21 7 31 -2 10 -11 34 3
27 16 -5 8 -3 8 8 0 8 -6 22 -10 32 -9 9 2 15 0 12 -5 -6 -9 51 -5 79 6 15 6
17 4 11 -7 -8 -12 -6 -12 8 0 9 7 17 10 17 7 0 -4 9 -2 19 4 14 7 22 7 27 -2
4 -6 3 -8 -2 -5 -6 3 -16 2 -23 -3 -9 -5 -2 -7 18 -6 17 0 31 4 31 8 0 4 12 3
26 -2 16 -7 23 -7 19 0 -3 6 1 10 10 10 9 0 14 -4 10 -9 -3 -5 -1 -12 5 -16 5
-3 10 1 10 11 0 12 3 14 13 6 8 -7 18 -7 27 -2 19 12 33 13 26 2 -3 -5 1 -9 9
-9 8 0 12 4 9 9 -3 4 0 8 5 8 6 0 11 -4 11 -8 0 -5 7 -9 15 -9 8 0 12 4 10 8
-3 4 2 10 10 13 9 3 18 0 21 -7 5 -15 41 -20 49 -6 9 14 27 11 19 -3 -6 -10
-4 -10 7 0 14 13 33 17 25 4 -2 -4 5 -9 17 -9 15 -2 18 0 9 6 -10 6 -8 10 7
14 12 3 19 1 15 -4 -7 -12 3 -11 26 1 12 6 21 7 25 0 3 -5 13 -6 22 -3 12 5
14 3 8 -8 -7 -12 -6 -12 7 -1 11 9 18 10 23 2 3 -5 12 -10 18 -9 9 0 9 2 0 6
-19 7 -16 21 5 19 9 0 20 -8 24 -16 5 -11 7 -10 7 5 1 14 4 16 9 7 7 -10 15
-10 36 -2 15 5 25 6 22 1 -3 -5 3 -11 14 -14 11 -3 18 -2 15 3 -3 4 2 10 10
14 8 3 15 0 15 -6 0 -6 6 -5 17 3 15 12 16 12 8 -1 -8 -13 -7 -13 8 -1 13 11
17 11 17 1 0 -8 3 -10 7 -7 3 4 13 1 21 -6 13 -10 14 -9 8 2 -6 9 -5 12 5 9 8
-3 24 -1 37 3 12 5 22 5 22 -1 0 -5 12 -5 30 0 17 5 33 9 37 10 3 1 9 -4 14
-11 6 -10 11 -10 23 0 9 8 16 9 16 4 0 -11 29 -11 47 0 6 4 13 1 16 -5 3 -10
7 -10 20 1 10 7 17 9 17 3 0 -5 15 -8 33 -7 17 2 38 -2 46 -9 12 -9 13 -8 7 3
-7 11 -1 13 27 9 20 -2 33 0 31 4 -3 4 0 8 5 8 6 0 11 -4 11 -8 0 -10 51 -9
67 1 6 4 13 1 16 -5 3 -10 7 -10 20 1 14 11 17 11 17 1 0 -8 3 -10 7 -7 3 4
13 1 21 -6 10 -7 13 -8 9 -1 -4 7 2 14 13 17 11 3 20 0 20 -6 0 -8 3 -8 12 1
8 8 17 8 31 1 14 -8 18 -8 13 0 -11 18 6 13 20 -6 13 -17 14 -17 8 0 -5 13 -2
16 10 11 9 -3 16 -11 16 -18 0 -6 5 -4 9 4 7 11 24 15 55 14 28 -1 46 3 46 10
0 6 5 3 11 -7 8 -13 14 -15 29 -7 12 6 21 6 25 1 8 -13 44 -5 66 15 11 10 19
12 19 6 0 -7 -5 -12 -12 -12 -6 0 -9 -2 -6 -5 3 -3 17 -1 32 4 21 9 26 8 26
-5 0 -8 4 -13 10 -9 5 3 6 13 3 22 -6 15 -5 16 9 3 11 -11 12 -17 4 -22 -6 -5
-7 -8 -1 -8 6 0 11 -8 11 -19 0 -11 -5 -17 -13 -14 -7 3 -10 10 -6 16 3 5 1 7
-5 4 -13 -9 -9 -36 7 -46 10 -6 9 -10 -4 -14 -10 -5 -14 -3 -9 5 4 7 3 8 -5 4
-7 -4 -10 -13 -8 -19 2 -7 -3 -18 -12 -25 -13 -11 -13 -12 -1 -7 9 4 8 0 -3
-8 -18 -15 -18 -15 0 -20 17 -4 17 -5 -1 -6 -12 -1 -16 -6 -12 -16 3 -8 -1
-21 -9 -29 -8 -7 -11 -16 -8 -20 4 -3 1 -6 -7 -6 -10 0 -10 -3 0 -15 10 -12 8
-14 -9 -10 -12 2 -19 0 -16 -6 12 -18 -6 -51 -23 -44 -9 3 -13 3 -9 -1 4 -4 0
-18 -8 -31 -9 -13 -11 -23 -6 -23 6 0 15 8 20 18 6 9 11 12 11 6 0 -16 -25
-35 -49 -37 -11 0 -17 -5 -15 -9 3 -5 9 -6 14 -3 4 3 14 -3 21 -13 13 -15 12
-16 -3 -3 -15 11 -19 11 -25 -5 -3 -11 -11 -22 -17 -26 -7 -5 -7 -8 2 -8 6 0
12 -5 12 -11 0 -5 -4 -7 -10 -4 -5 3 -10 2 -10 -4 0 -5 6 -12 13 -14 10 -4 10
-6 0 -6 -7 -1 -13 -6 -13 -12 0 -5 5 -7 10 -4 6 3 10 1 10 -4 0 -10 -22 -16
-43 -12 -5 1 -6 -3 -2 -9 4 -6 15 -8 26 -5 12 4 19 2 19 -6 0 -7 -3 -9 -7 -6
-3 4 -12 2 -20 -4 -10 -9 -13 -8 -13 1 0 9 -4 9 -17 -1 -15 -12 -16 -12 -9 5
6 19 6 19 -12 3 -10 -9 -28 -15 -40 -12 -12 2 -22 0 -22 -6 0 -5 -5 -9 -11 -9
-5 0 -8 4 -5 9 3 5 -1 12 -10 15 -8 3 -12 2 -9 -3 7 -12 -22 -20 -62 -17 -19
2 -33 -2 -33 -8 0 -7 -3 -7 -8 -1 -9 13 -35 18 -27 5 3 -5 1 -10 -4 -10 -6 0
-11 6 -11 13 0 8 -4 7 -10 -3 -8 -12 -10 -12 -10 -1 0 11 -3 11 -17 0 -14 -12
-17 -12 -21 0 -4 11 -6 11 -13 0 -7 -12 -9 -11 -9 1 0 13 -2 13 -9 1 -5 -8
-27 -14 -49 -15 -31 -1 -39 2 -35 14 3 10 1 10 -7 -2 -12 -20 -35 -25 -24 -5
6 9 4 9 -7 0 -17 -17 -32 -17 -23 0 4 6 -1 5 -12 -4 -20 -17 -49 -15 -38 3 5
7 2 8 -7 2 -13 -8 -47 -13 -112 -15 -15 0 -25 -4 -22 -8 6 -10 -47 -7 -64 3
-6 4 -11 0 -11 -9 0 -9 -5 -13 -10 -10 -6 4 -8 10 -6 14 3 4 -2 8 -10 8 -9 0
-13 -6 -9 -16 4 -11 0 -10 -16 5 -12 10 -19 13 -15 7 9 -17 -6 -17 -23 0 -11
10 -13 10 -7 0 4 -7 3 -13 -1 -13 -5 0 -15 6 -22 13 -11 10 -12 9 -6 -1 5 -10
2 -13 -11 -11 -11 2 -25 0 -31 -4 -7 -5 -13 -4 -13 2 0 6 -7 8 -15 5 -8 -4
-12 -11 -8 -17 4 -6 1 -7 -8 -1 -19 12 -99 11 -99 -1 0 -5 -5 -3 -10 5 -8 12
-10 12 -10 1 0 -10 -3 -11 -14 -2 -10 8 -16 9 -21 1 -3 -5 -11 -10 -16 -10 -6
0 -7 4 -4 10 3 6 -1 7 -9 4 -9 -3 -16 -10 -16 -16 0 -5 -7 -2 -16 6 -19 20
-25 20 -18 1 5 -11 2 -13 -12 -8 -13 5 -15 3 -10 -8 4 -8 0 -5 -8 5 -9 12 -16
15 -16 7 0 -8 -11 -11 -30 -9 -19 2 -34 -3 -40 -12 -7 -10 -10 -11 -10 -2 0
16 -32 16 -49 -1 -11 -9 -13 -9 -7 0 5 8 1 13 -9 13 -9 0 -13 -5 -9 -11 5 -8
-4 -10 -30 -7 -20 2 -36 1 -36 -4 0 -4 -7 -4 -17 -1 -11 4 -14 3 -9 -5 6 -11
-11 -17 -36 -13 -4 0 -4 -7 -1 -17 6 -15 5 -16 -12 -2 -10 8 -16 10 -12 3 4
-6 0 -19 -9 -27 -8 -9 -12 -16 -7 -16 4 -1 -3 -7 -17 -14 -14 -8 -28 -12 -33
-9 -4 2 -6 -1 -5 -9 2 -7 -3 -12 -11 -10 -12 3 -12 1 0 -14 8 -10 9 -15 2 -11
-6 4 -14 1 -16 -5 -4 -10 -6 -10 -6 0 -1 6 -5 12 -11 12 -5 0 -7 -7 -4 -15 4
-8 1 -15 -6 -15 -6 0 -9 -4 -6 -9 8 -12 -21 -34 -33 -27 -6 4 -8 -2 -6 -15 4
-17 2 -19 -11 -8 -12 10 -13 9 -8 -6 5 -12 4 -16 -4 -11 -6 3 -13 2 -17 -4 -3
-5 3 -15 14 -21 10 -7 17 -18 14 -25 -2 -7 5 -22 16 -33 12 -12 16 -21 11 -21
-6 0 1 -11 15 -25 25 -26 33 -41 16 -30 -5 3 -13 0 -17 -6 -4 -8 -3 -9 5 -5 6
4 14 0 17 -8 3 -9 10 -13 15 -10 5 3 9 0 9 -7 0 -7 8 -22 18 -33 16 -20 16
-20 0 -7 -24 18 -23 9 2 -19 11 -12 17 -27 14 -31 -3 -5 0 -9 6 -9 6 0 8 -5 4
-12 -5 -8 -2 -9 11 -4 16 6 16 4 4 -11 -9 -11 -10 -14 -1 -9 7 4 12 1 12 -9 0
-10 5 -13 13 -9 7 5 6 0 -3 -11 -9 -11 -10 -16 -2 -11 8 5 12 1 12 -10 0 -10
3 -14 7 -11 8 9 34 -43 27 -54 -3 -5 3 -9 13 -9 15 0 16 -2 3 -10 -13 -8 -12
-10 3 -10 10 0 15 -5 12 -10 -3 -5 -1 -10 6 -10 8 0 7 -5 -2 -17 -10 -11 -10
-14 -1 -9 7 4 12 2 12 -4 0 -6 5 -8 13 -4 7 5 6 0 -3 -11 -8 -10 -10 -16 -4
-12 13 8 27 -19 18 -34 -3 -5 2 -9 11 -9 10 0 13 5 9 12 -4 6 -3 8 4 5 5 -4 8
-16 5 -27 -3 -12 1 -22 10 -26 9 -3 13 -12 10 -21 -4 -11 -2 -14 6 -9 6 4 11
4 10 -1 -4 -26 3 -52 14 -49 6 1 9 1 5 -1 -5 -3 -8 -11 -8 -18 0 -7 -6 -16
-12 -19 -7 -3 0 -3 15 -1 22 3 26 1 18 -9 -8 -9 -5 -18 12 -33 13 -10 28 -18
35 -15 7 2 12 -5 12 -15 0 -15 2 -16 10 -3 5 8 10 10 10 4 0 -7 7 -15 16 -18
8 -3 13 -2 10 3 -7 12 22 23 37 14 7 -4 8 0 3 12 -6 16 -4 16 11 4 11 -9 14
-10 9 -1 -4 7 -1 12 8 12 9 0 16 5 16 11 0 5 6 7 13 3 8 -5 7 -2 -2 9 -8 10
-11 20 -7 24 3 3 6 2 6 -4 0 -5 7 -10 15 -10 8 0 12 4 10 8 -9 13 7 39 22 39
10 0 13 6 9 17 -4 10 -4 14 0 10 4 -4 14 -1 23 6 14 10 14 10 3 -5 -10 -12
-10 -18 -1 -24 8 -4 9 -3 5 5 -4 6 -1 14 8 17 8 3 13 11 10 19 -4 9 2 11 20 8
14 -3 26 -1 26 5 0 5 9 12 20 15 13 3 20 0 20 -9 0 -8 -7 -11 -17 -8 -15 5
-15 4 -3 -4 10 -8 18 -7 28 0 10 9 12 8 10 -3 -2 -8 3 -13 10 -11 8 1 11 -2 7
-7 -3 -6 -13 -7 -23 -4 -14 6 -15 4 -4 -9 9 -12 10 -18 2 -23 -8 -5 -7 -11 2
-23 11 -14 10 -15 -6 -8 -20 7 -20 7 0 -15 10 -12 13 -19 7 -15 -7 4 -13 3
-13 -3 0 -5 8 -15 18 -20 16 -10 16 -10 0 -11 -10 0 -18 -4 -18 -10 0 -5 3 -9
8 -9 18 3 32 -2 32 -12 0 -5 -4 -7 -10 -4 -15 9 -12 -2 6 -19 9 -9 11 -16 4
-16 -6 0 -8 -5 -5 -10 4 -6 11 -8 16 -4 6 3 8 -5 5 -20 -3 -14 0 -29 6 -32 7
-5 8 -2 3 6 -5 8 -4 11 3 6 6 -4 9 -13 5 -21 -3 -8 0 -15 7 -15 6 0 8 -4 5
-10 -3 -5 -1 -10 5 -10 6 0 9 -4 5 -9 -3 -5 2 -16 10 -24 17 -17 20 -31 6 -22
-5 3 -13 1 -16 -5 -4 -6 -1 -9 7 -8 8 2 12 -4 10 -16 -3 -18 -2 -18 14 -5 16
13 16 12 5 -10 -11 -19 -11 -22 0 -16 9 6 10 3 5 -10 -5 -15 -4 -16 9 -5 14
11 14 10 6 -12 -13 -34 4 -64 27 -46 11 8 10 5 -3 -11 -18 -22 -18 -24 -2 -18
10 4 16 3 13 -1 -3 -5 1 -21 9 -36 8 -14 11 -24 6 -22 -4 3 -8 -1 -8 -9 0 -8
4 -12 9 -9 4 3 8 0 8 -6 0 -6 5 -8 10 -5 6 4 10 3 9 -2 -5 -26 2 -53 12 -47 8
5 8 1 0 -14 -15 -29 -14 -37 4 -22 9 7 18 10 22 6 3 -3 2 -6 -4 -6 -5 0 -10
-7 -10 -15 0 -8 3 -15 7 -15 4 0 12 -19 19 -42 7 -22 19 -48 27 -56 12 -12 12
-17 2 -30 -11 -13 -11 -14 1 -7 11 6 13 4 7 -10 -5 -14 -3 -15 6 -7 10 8 14 4
15 -14 5 -53 8 -62 14 -61 4 1 8 -2 9 -8 1 -5 7 -16 13 -24 6 -7 13 -25 15
-39 2 -15 6 -29 10 -32 4 -3 7 -11 8 -17 2 -30 5 -33 27 -33 12 0 18 -4 12 -8
-5 -4 -11 -18 -12 -32 -1 -14 1 -19 3 -13 4 10 9 10 20 -1 16 -16 19 -30 5
-22 -5 4 -4 -5 2 -18 7 -13 16 -22 20 -19 5 3 3 -5 -3 -18 -7 -13 -9 -21 -5
-17 9 8 35 -14 28 -25 -2 -4 3 -7 11 -7 9 0 16 -6 16 -12 0 -9 4 -8 10 2 6 10
10 11 10 3 0 -7 5 -13 11 -13 5 0 7 5 3 12 -5 7 0 9 14 6 11 -3 30 1 41 9 12
8 26 11 31 8 6 -3 13 1 17 11 6 16 7 16 18 0 11 -15 13 -15 19 -1 4 11 2 14
-6 9 -7 -4 -8 -3 -4 5 6 8 12 9 20 2 14 -11 26 -5 26 13 0 6 -5 4 -10 -4 -6
-9 -10 -10 -10 -3 0 21 18 24 36 6 17 -17 18 -17 11 1 -5 14 -4 17 8 12 9 -3
15 0 15 8 0 7 12 16 28 19 15 4 34 11 42 17 13 9 13 11 0 21 -13 9 -12 10 3 5
9 -3 17 -1 17 4 0 5 6 7 14 4 14 -5 59 59 59 86 0 8 7 24 16 35 15 18 15 19
-1 6 -10 -7 -18 -10 -18 -5 1 13 26 45 31 39 3 -2 6 6 6 18 2 17 0 18 -7 7 -7
-11 -9 -10 -7 7 0 12 5 19 9 17 4 -3 8 4 8 15 0 10 6 22 13 24 10 4 10 6 0 6
-7 1 -13 6 -13 12 0 5 5 7 12 3 8 -5 9 0 6 14 -4 15 -2 22 7 22 8 0 17 4 20
10 3 5 0 7 -8 4 -8 -3 -14 1 -14 10 0 8 4 13 9 10 4 -3 8 -1 8 5 0 5 -6 12
-12 15 -7 4 -2 4 11 2 22 -5 23 -4 8 11 -15 15 -15 17 1 29 16 13 16 13 -1 14
-15 0 -16 3 -7 20 6 11 8 26 4 33 -5 7 -1 7 9 -2 16 -13 17 -12 8 13 -6 14 -7
26 -2 26 5 0 7 10 3 22 -4 16 -2 19 9 13 11 -6 12 -5 2 6 -7 7 -13 17 -13 22
0 4 6 5 13 1 7 -5 6 0 -3 11 -9 11 -10 16 -2 11 6 -4 12 -3 12 1 0 5 -6 15
-12 22 -10 11 -10 13 0 7 7 -4 12 -1 12 8 0 8 -6 17 -12 19 -8 3 -7 6 4 6 9 1
20 6 24 13 4 7 3 8 -4 4 -15 -9 -15 -1 0 27 10 20 9 21 -5 9 -14 -12 -14 -10
-5 22 6 19 15 33 19 30 4 -2 11 0 14 6 4 6 1 9 -6 8 -6 -2 -14 3 -16 10 -3 6
1 12 8 12 7 0 5 6 -7 15 -13 11 -14 13 -3 9 13 -4 15 0 11 22 -4 21 -2 25 9
19 12 -7 12 -6 1 7 -10 13 -11 22 -2 37 8 16 8 21 -2 21 -7 0 -2 7 10 15 21
16 21 17 4 43 -9 14 -12 23 -5 19 6 -4 14 -3 18 3 3 5 1 10 -6 10 -8 0 -9 4 0
13 7 10 7 17 0 24 -8 8 -8 13 0 17 6 4 11 2 11 -5 0 -7 3 -10 6 -7 3 4 0 16
-6 28 -7 13 -8 20 -2 16 6 -3 13 -2 17 4 3 5 3 10 -2 10 -4 0 -8 14 -8 30 0
17 4 30 9 30 4 0 6 9 3 21 -5 17 -3 18 11 7 12 -10 14 -10 8 -1 -4 7 -9 22
-11 34 -3 15 0 19 10 15 8 -3 17 -1 20 5 4 5 1 8 -6 7 -6 -2 -14 3 -17 11 -3
10 0 11 9 5 12 -7 12 -5 0 9 -12 15 -11 17 5 18 12 0 14 3 6 6 -10 4 -10 8 0
21 10 11 10 16 1 19 -13 5 -6 33 9 33 5 0 6 -5 2 -12 -4 -7 -3 -8 4 -4 6 4 9
13 6 21 -4 8 -11 12 -16 9 -6 -4 -5 3 1 15 7 11 8 21 4 21 -4 0 -1 5 7 10 13
8 13 10 0 10 -10 0 -7 5 8 16 21 14 22 41 1 29 -5 -4 -9 -1 -9 4 0 6 5 11 10
11 6 0 10 5 10 11 0 5 -4 7 -10 4 -6 -3 -7 1 -4 9 3 9 11 13 18 9 6 -4 5 0 -2
9 -11 13 -11 19 1 29 8 8 12 21 9 31 -2 10 1 24 7 32 8 10 9 16 1 21 -5 3 -10
12 -10 18 0 7 4 6 11 -3 8 -11 9 -4 7 28 -3 33 -1 41 11 37 11 -4 12 -3 1 10
-8 10 -9 15 -1 15 6 0 11 5 11 11 0 5 -6 7 -12 3 -9 -5 -9 -3 1 9 7 9 11 28 9
42 -3 14 -1 28 3 31 5 3 9 0 9 -7 0 -7 3 -9 6 -6 4 4 1 13 -5 21 -8 10 -9 16
-1 21 5 3 10 19 10 36 0 16 5 29 13 29 8 0 7 4 -3 10 -13 9 -13 10 0 10 13 0
13 1 0 10 -13 9 -7 14 12 11 4 0 3 10 -2 24 -6 16 -6 25 0 25 6 0 10 -5 10
-12 0 -6 3 -8 6 -5 4 4 1 13 -5 21 -8 10 -9 16 -1 21 5 3 10 11 10 16 0 6 -6
7 -12 3 -9 -5 -9 -2 1 9 11 14 11 20 0 34 -8 9 -9 14 -3 10 7 -4 12 2 12 18 0
14 -4 22 -9 19 -5 -3 -9 -2 -9 3 0 4 -25 8 -55 8 -45 0 -54 -3 -50 -15 3 -9
-1 -7 -10 4 -8 11 -15 16 -15 10 0 -5 -11 -9 -24 -9 -15 0 -22 4 -18 10 4 6
-1 2 -10 -8 -10 -11 -18 -14 -18 -8 0 6 -7 11 -15 11 -8 0 -15 -6 -15 -12 0
-10 -3 -9 -9 1 -5 7 -13 11 -18 8 -5 -3 -9 5 -9 17 0 12 6 23 13 23 6 0 10 -4
7 -9 -3 -4 0 -8 6 -8 6 0 8 -5 4 -12 -4 -6 -3 -8 4 -5 5 4 8 17 5 30 -4 21 -4
22 11 3 19 -23 21 -14 4 17 -10 20 -10 21 5 9 14 -12 16 -11 12 7 -2 12 1 21
6 21 6 0 7 6 3 13 -5 8 -2 7 9 -2 15 -12 17 -12 11 4 -6 14 -4 16 7 10 12 -8
12 -6 1 8 -12 14 -11 16 6 12 12 -2 27 4 34 13 12 15 11 16 -4 3 -21 -15 -24
-2 -5 18 9 10 9 12 0 7 -8 -5 -8 2 2 20 8 15 11 32 8 37 -3 6 -1 7 5 3 6 -4 9
-14 6 -24 -5 -14 -4 -14 4 -3 6 8 9 22 7 33 -2 10 6 24 18 33 15 10 17 15 7
16 -8 0 -4 5 10 10 20 8 22 12 10 19 -10 7 -11 10 -2 10 6 0 12 7 12 16 0 9 6
14 13 11 10 -4 13 2 9 20 -3 18 -1 24 7 19 10 -7 17 21 12 48 -1 5 6 3 15 -5
10 -8 15 -9 11 -2 -4 6 -3 14 3 18 5 3 10 12 10 18 0 7 -4 6 -10 -3 -6 -9 -10
-10 -10 -3 0 6 5 15 10 18 6 4 7 11 4 17 -4 7 -2 8 4 4 7 -4 12 -1 12 9 0 9 4
14 9 10 5 -3 13 0 17 6 4 8 3 9 -4 5 -7 -4 -12 -2 -12 4 0 6 -4 8 -10 5 -5 -3
-10 -1 -10 5 0 6 11 8 25 6 22 -4 24 -2 15 14 -12 23 -13 33 -2 26 5 -3 9 1 9
8 0 8 -6 12 -14 9 -9 -4 -11 0 -7 11 3 9 9 14 13 12 4 -3 7 6 7 19 0 16 -4 21
-15 17 -12 -4 -11 1 4 18 11 13 15 21 9 17 -6 -3 -11 0 -11 8 0 8 4 12 8 10 4
-3 7 5 7 18 0 12 2 31 5 42 2 11 1 30 -4 41 -4 13 -3 26 4 34 9 10 9 14 0 17
-8 3 -9 12 -5 26 4 12 7 43 6 69 0 32 4 49 13 52 11 5 10 11 -4 33 -17 27 -17
28 2 13 17 -14 18 -13 11 5 -11 29 -14 65 -5 65 4 0 9 -5 11 -11 6 -17 1 113
-6 139 -3 12 -1 20 3 17 5 -3 12 2 15 11 3 8 2 13 -2 11 -4 -3 -14 2 -22 11
-13 14 -12 15 2 10 10 -4 19 -1 22 8 3 8 2 13 -3 10 -5 -3 -11 1 -14 9 -4 9
-1 12 9 8 10 -4 12 0 7 13 -3 11 -11 22 -17 26 -8 5 -7 8 0 8 7 0 11 16 10 39
0 22 2 37 7 34 4 -2 7 1 7 6 0 6 -4 11 -9 11 -5 0 -8 11 -7 25 0 14 4 25 9 25
4 0 7 5 7 11 0 5 -4 8 -9 5 -11 -7 -8 21 4 31 4 4 5 2 0 -6 -5 -10 -4 -12 3
-7 9 5 9 13 2 26 -13 24 -13 33 1 24 8 -4 8 0 0 15 -9 16 -9 21 1 21 9 0 9 3
-2 10 -13 9 -13 10 0 10 11 0 12 2 3 8 -8 5 -9 13 -3 22 6 8 10 22 10 30 0 13
-1 13 -10 0 -6 -9 -10 -10 -10 -3 0 7 8 17 18 22 9 6 11 11 5 11 -7 0 -13 5
-13 11 0 5 6 7 13 3 9 -6 9 -5 0 7 -9 11 -8 18 2 33 10 13 11 24 4 37 -8 15
-6 19 8 20 10 0 13 3 6 5 -6 3 -9 16 -7 30 3 15 1 23 -5 20 -5 -3 -7 3 -4 15
4 16 8 17 14 7 6 -9 9 -9 9 -1 0 6 -4 14 -8 17 -10 6 -9 42 1 52 12 12 8 26
-5 18 -10 -6 -10 -4 0 8 7 9 13 44 13 82 1 43 5 66 12 66 7 0 6 4 -3 10 -13 9
-13 10 0 10 9 0 11 3 5 8 -5 4 -11 13 -13 21 -3 12 -1 12 13 1 14 -11 16 -11
13 1 -2 8 -10 17 -18 21 -10 5 -7 7 10 8 l25 1 -25 10 c-21 9 -23 12 -10 22
11 9 15 30 14 79 -1 37 1 66 5 63 4 -2 8 2 8 10 0 8 -4 12 -9 9 -4 -3 -8 2 -8
11 0 9 4 14 9 11 10 -7 9 20 -2 30 -4 4 -7 12 -7 18 0 6 5 4 10 -4 8 -12 10
-10 10 8 0 16 -4 21 -12 16 -10 -6 -10 -5 -1 7 7 8 11 54 11 119 0 80 3 104
13 102 10 -2 10 0 0 11 -9 12 -9 16 1 20 10 4 10 6 1 6 -7 1 -13 6 -13 12 0 5
5 7 10 4 6 -4 10 5 10 19 0 14 -4 26 -10 26 -5 0 -10 5 -10 11 0 5 5 7 12 3 8
-5 9 0 5 15 -3 15 0 24 10 28 12 5 12 7 1 14 -10 7 -9 9 4 9 9 0 20 5 24 12 5
7 3 8 -6 3 -9 -6 -11 -4 -6 4 5 7 15 10 24 6 9 -3 13 -3 10 1 -11 10 12 45 24
38 7 -4 8 -3 4 5 -4 6 -12 9 -17 6 -5 -3 -6 1 -3 9 3 9 11 13 16 9 7 -4 9 4 6
20 -3 15 -2 24 2 22 4 -3 8 6 8 19 0 16 -8 26 -20 29 -11 3 -17 10 -14 15 3 5
-1 18 -9 28 -8 10 -15 25 -15 32 0 19 -26 43 -36 34 -5 -4 -2 2 6 12 10 13 10
17 3 12 -8 -4 -13 -2 -13 4 0 6 -7 18 -15 26 -11 11 -15 12 -15 3 0 -7 -3 -9
-6 -6 -4 4 -1 14 6 22 7 9 9 15 4 14 -5 -1 -16 -1 -24 0 -13 1 -13 2 0 11 13
8 12 10 -4 10 -11 0 -16 5 -13 14 8 21 -4 28 -18 9 -10 -13 -11 -11 -8 18 2
26 1 29 -6 14 -8 -19 -9 -18 -12 5 -3 15 -10 24 -18 22 -12 -3 -12 0 -1 13 11
13 10 14 -5 9 -14 -6 -16 -4 -10 6 6 10 4 12 -8 7 -19 -7 -32 8 -16 19 8 5 9
3 4 -6 -6 -9 -4 -11 5 -5 10 6 4 16 -23 38 -21 16 -34 33 -31 38 3 5 -2 12
-10 15 -9 3 -16 13 -16 21 0 8 -7 21 -15 30 -8 8 -12 20 -8 26 4 7 -2 5 -13
-3 -10 -8 -16 -11 -12 -6 4 5 0 15 -8 23 -8 9 -13 22 -10 29 3 8 1 14 -5 14
-6 0 -7 4 -4 10 4 6 -1 7 -12 3 -15 -6 -16 -4 -6 9 16 18 5 32 -14 17 -10 -9
-13 -7 -14 10 -2 33 -4 39 -11 47 -4 3 -5 -3 -3 -15 2 -12 0 -19 -6 -16 -5 4
-9 16 -9 27 0 12 -3 18 -7 15 -3 -4 -13 2 -20 13 -8 11 -18 18 -22 16 -4 -3
-6 9 -5 25 2 24 -1 28 -11 19 -11 -9 -12 -7 -8 9 3 13 1 21 -6 21 -7 0 -9 -5
-5 -12 4 -6 3 -8 -4 -5 -5 4 -8 16 -5 27 4 14 0 20 -11 20 -10 0 -13 5 -9 17
4 11 3 14 -5 9 -7 -4 -12 -1 -12 9 0 9 -4 13 -10 10 -5 -3 -10 3 -10 15 0 13
-9 24 -25 30 -18 7 -23 14 -18 26 4 11 2 15 -4 11 -6 -4 -14 4 -17 18 -4 14
-11 23 -16 20 -5 -3 -15 2 -22 10 -7 9 -18 22 -25 29 -7 8 -10 15 -8 18 2 2
-5 5 -17 5 -12 1 -26 7 -32 14 -8 9 -7 10 3 4 10 -6 12 -4 7 4 -4 6 -13 10
-21 9 -7 -2 -23 8 -34 21 -13 15 -21 19 -21 10 0 -12 -2 -12 -9 0 -5 8 -16 11
-25 8 -25 -10 -19 2 7 14 20 8 19 9 -7 4 -20 -4 -32 -1 -43 12 -14 17 -14 17
-9 -1 6 -16 4 -17 -9 -6 -8 7 -12 17 -8 23 3 6 1 7 -6 3 -6 -4 -9 -11 -6 -16
3 -5 1 -11 -5 -15 -5 -3 -10 2 -10 11 0 16 -2 16 -20 -1 -12 -10 -19 -24 -16
-31 3 -8 0 -11 -8 -8 -7 3 -18 -7 -24 -21 -6 -14 -17 -25 -24 -25 -8 0 -9 3
-3 8 6 4 11 14 13 22 2 10 -4 7 -17 -7 -22 -23 -28 -38 -11 -28 6 3 10 1 10
-5 0 -6 -11 -15 -25 -20 -28 -11 -35 -22 -7 -14 14 5 14 4 2 -4 -10 -8 -18 -8
-27 -1 -9 8 -11 6 -8 -10 2 -14 -1 -18 -11 -14 -7 3 -12 9 -9 13 3 5 0 12 -6
16 -7 4 -9 3 -5 -4 3 -6 2 -13 -4 -17 -5 -3 -10 -1 -10 5 0 6 -5 8 -10 5 -6
-4 -7 -11 -4 -17 4 -7 2 -8 -5 -4 -6 4 -9 11 -6 16 3 4 -3 14 -12 21 -9 8 -14
9 -10 3 3 -6 0 -11 -8 -11 -11 0 -12 5 -3 21 10 19 10 20 -5 7 -11 -9 -17 -10
-17 -2 0 6 -11 11 -24 11 -13 0 -38 13 -54 29 -23 21 -34 25 -43 17 -9 -8 -10
-6 -5 9 4 11 4 16 0 12 -4 -4 -14 -1 -23 6 -14 10 -14 10 -4 -4 10 -13 10 -16
-2 -16 -7 0 -14 3 -13 6 2 20 -3 31 -12 26 -5 -3 -10 -1 -10 6 0 8 -5 7 -17
-2 -11 -10 -14 -10 -9 -1 4 6 2 12 -3 12 -6 0 -11 8 -12 18 0 14 -2 14 -9 -3
-7 -17 -9 -17 -9 -3 -1 12 -6 15 -18 11 -11 -4 -14 -3 -9 6 5 8 3 12 -5 10
-28 -3 -49 1 -49 11 0 7 6 7 18 1 14 -7 19 -6 19 3 0 13 -25 15 -45 2 -7 -4
-12 -4 -11 1 1 4 1 15 0 23 -1 13 -2 13 -11 0 -8 -12 -10 -12 -10 5 0 17 -2
17 -10 5 -7 -11 -10 -11 -10 -2 0 7 -4 10 -10 7 -5 -3 -10 1 -10 9 0 9 -9 16
-20 16 -11 0 -20 5 -20 10 0 6 -7 10 -16 10 -8 0 -12 5 -9 10 4 6 -5 10 -20
10 -15 0 -24 4 -20 10 3 6 -1 10 -10 10 -9 0 -13 5 -9 11 4 8 0 8 -15 0 -14
-8 -21 -8 -21 -1 0 5 5 10 10 10 6 0 10 4 10 8 0 5 -7 9 -15 9 -8 0 -15 -5
-15 -11 0 -6 -4 -4 -9 4 -6 8 -7 18 -5 22 3 5 -6 7 -19 4 -29 -5 -66 29 -62
56 2 11 -2 15 -12 11 -12 -5 -12 -7 -1 -14 7 -5 10 -9 6 -9 -4 0 -20 8 -36 18
-19 11 -26 23 -24 37 4 19 3 19 -10 1 -14 -17 -15 -17 -21 -2 -5 12 -3 15 6
11 6 -4 4 0 -5 8 -10 8 -14 18 -10 22 4 5 1 5 -6 1 -7 -4 -9 -13 -5 -19 5 -8
2 -8 -9 0 -8 7 -18 10 -21 6 -4 -3 -7 -1 -7 6 0 7 -4 9 -10 6 -9 -6 -14 8 -11
28 1 5 -3 6 -9 2 -9 -6 -14 8 -11 28 1 5 -3 6 -9 2 -6 -3 -7 -11 -4 -17 4 -6
2 -8 -4 -4 -5 3 -13 0 -16 -6 -3 -7 -3 -3 0 9 4 17 -2 25 -26 38 -17 9 -36 13
-42 9 -8 -5 -9 -2 -5 9 7 20 7 20 -15 6z m-3 -18 c-9 -8 -36 -10 -30 -2 2 4
11 8 20 8 8 0 13 -3 10 -6z m-155 -311 c0 -5 -5 -10 -11 -10 -5 0 -7 5 -4 10
3 6 8 10 11 10 2 0 4 -4 4 -10z m-1373 -726 c-3 -3 -12 -4 -19 -1 -8 3 -5 6 6
6 11 1 17 -2 13 -5z m-22 -283 c3 -5 2 -12 -3 -15 -5 -3 -9 1 -9 9 0 17 3 19
12 6z m-1035 -1131 c0 -5 -2 -10 -4 -10 -3 0 -8 5 -11 10 -3 6 -1 10 4 10 6 0
11 -4 11 -10z m2653 -45 c4 -8 3 -16 -1 -19 -4 -3 -9 4 -9 15 -2 23 3 25 10 4z
m-1116 -221 c-3 -3 -12 -4 -19 -1 -8 3 -5 6 6 6 11 1 17 -2 13 -5z m3168 -183
c3 -5 2 -12 -3 -15 -5 -3 -9 1 -9 9 0 17 3 19 12 6z m-1868 -397 c-3 -3 -12
-4 -19 -1 -8 3 -5 6 6 6 11 1 17 -2 13 -5z m38 -44 c3 -5 1 -10 -4 -10 -6 0
-11 5 -11 10 0 6 2 10 4 10 3 0 8 -4 11 -10z m-1368 -23 c0 -8 -6 -14 -14 -14
-9 0 -10 4 -2 14 6 7 12 13 14 13 1 0 2 -6 2 -13z m3163 -167 c0 -5 -2 -10 -4
-10 -3 0 -8 5 -11 10 -3 6 -1 10 4 10 6 0 11 -4 11 -10z m-4410 -145 c11 -13
10 -14 -4 -9 -9 3 -16 10 -16 15 0 13 6 11 20 -6z m4380 -299 c0 -2 -8 -10
-17 -17 -16 -13 -17 -12 -4 4 13 16 21 21 21 13z m-2370 -250 c0 -2 -8 -10
-17 -17 -16 -13 -17 -12 -4 4 13 16 21 21 21 13z m635 -14 c-3 -3 -11 0 -18 7
-9 10 -8 11 6 5 10 -3 15 -9 12 -12z m-1415 -952 c0 -5 -2 -10 -4 -10 -3 0 -8
5 -11 10 -3 6 -1 10 4 10 6 0 11 -4 11 -10z m2965 -280 c-3 -5 -12 -10 -18
-10 -7 0 -6 4 3 10 19 12 23 12 15 0z m-95 -524 c0 -3 -4 -8 -10 -11 -5 -3
-10 -1 -10 4 0 6 5 11 10 11 6 0 10 -2 10 -4z m-3846 -182 c3 -8 2 -12 -4 -9
-6 3 -10 10 -10 16 0 14 7 11 14 -7z m2896 -114 c0 -5 -2 -10 -4 -10 -3 0 -8
5 -11 10 -3 6 -1 10 4 10 6 0 11 -4 11 -10z m-2850 -206 c0 -8 -19 -13 -24 -6
-3 5 1 9 9 9 8 0 15 -2 15 -3z m3610 -409 c-7 -9 -15 -13 -19 -10 -3 3 1 10 9
15 21 14 24 12 10 -5z"/>
<path d="M4261 7124 c-1 -6 5 -17 12 -23 10 -8 14 -7 14 4 0 8 -4 12 -8 9 -4
-2 -10 2 -12 8 -4 8 -6 9 -6 2z"/>
<path d="M5385 6790 c-3 -6 1 -7 9 -4 18 7 21 14 7 14 -6 0 -13 -4 -16 -10z"/>
<path d="M4841 6787 c2 -1 13 -9 24 -17 19 -14 19 -14 6 3 -7 9 -18 17 -24 17
-6 0 -8 -1 -6 -3z"/>
<path d="M5700 6426 c0 -2 8 -10 18 -17 15 -13 16 -12 3 4 -13 16 -21 21 -21
13z"/>
<path d="M5925 6131 c-6 -11 13 -26 22 -17 4 3 1 6 -6 6 -7 0 -9 5 -6 10 3 6
4 10 1 10 -3 0 -7 -4 -11 -9z"/>
<path d="M6212 5734 c-7 -8 -8 -14 -3 -14 10 0 25 19 20 25 -2 1 -10 -3 -17
-11z"/>
<path d="M1301 5431 c-8 -5 -9 -11 -3 -15 5 -3 12 1 16 9 6 17 6 18 -13 6z"/>
<path d="M4293 4085 c-6 -14 -7 -23 -3 -20 5 3 10 -1 13 -7 2 -7 4 2 5 20 0
17 0 32 -1 32 -1 0 -7 -11 -14 -25z"/>
<path d="M3086 3902 c-3 -5 1 -9 9 -9 8 0 12 4 9 9 -3 4 -7 8 -9 8 -2 0 -6 -4
-9 -8z"/>
<path d="M1547 3719 c7 -7 15 -10 18 -7 3 3 -2 9 -12 12 -14 6 -15 5 -6 -5z"/>
<path d="M1570 3579 c0 -5 5 -7 10 -4 6 3 10 8 10 11 0 2 -4 4 -10 4 -5 0 -10
-5 -10 -11z"/>
<path d="M5993 3545 c0 -8 4 -12 9 -9 5 3 6 10 3 15 -9 13 -12 11 -12 -6z"/>
<path d="M5993 3505 c0 -8 4 -12 9 -9 5 3 6 10 3 15 -9 13 -12 11 -12 -6z"/>
<path d="M1537 3136 c-3 -8 -2 -18 3 -21 13 -8 20 9 11 24 -6 10 -10 9 -14 -3z"/>
<path d="M5566 3068 c3 -5 10 -6 15 -3 13 9 11 12 -6 12 -8 0 -12 -4 -9 -9z"/>
<path d="M3740 3065 c0 -2 6 -8 13 -14 10 -8 14 -7 14 2 0 8 -6 14 -14 14 -7
0 -13 -1 -13 -2z"/>
<path d="M1553 2905 c0 -8 4 -12 9 -9 5 3 6 10 3 15 -9 13 -12 11 -12 -6z"/>
<path d="M5805 2810 c-3 -6 1 -7 9 -4 18 7 21 14 7 14 -6 0 -13 -4 -16 -10z"/>
<path d="M3997 1759 c7 -7 15 -10 18 -7 3 3 -2 9 -12 12 -14 6 -15 5 -6 -5z"/>
<path d="M1910 519 c0 -5 5 -7 10 -4 6 3 10 8 10 11 0 2 -4 4 -10 4 -5 0 -10
-5 -10 -11z"/>
<path d="M4940 500 c0 -5 5 -10 11 -10 5 0 7 5 4 10 -3 6 -8 10 -11 10 -2 0
-4 -4 -4 -10z"/>
</g>
</svg>
