<svg width="17" height="16" viewBox="0 0 17 16" fill="none" xmlns="http://www.w3.org/2000/svg">
<path d="M9.59375 2.69141L14.4062 7.28516C14.543 7.42188 14.625 7.58594 14.625 7.77734C14.625 7.94141 14.543 8.10547 14.4062 8.24219L9.59375 12.8359C9.34766 13.082 8.91016 13.082 8.66406 12.8086C8.41797 12.5625 8.41797 12.125 8.69141 11.8789L12.3281 8.43359H3.03125C2.64844 8.43359 2.375 8.13281 2.375 7.77734C2.375 7.39453 2.64844 7.12109 3.03125 7.12109H12.3281L8.69141 3.64844C8.41797 3.40234 8.41797 2.96484 8.66406 2.71875C8.91016 2.44531 9.32031 2.44531 9.59375 2.69141Z" fill="white"/>
</svg>
