<svg width="16" height="17" viewBox="0 0 16 17" fill="none" xmlns="http://www.w3.org/2000/svg">
<path d="M14.7266 3.19141L13.0586 1.52344C12.8945 1.35938 12.6758 1.25 12.4297 1.25H7.97266C6.98828 1.25 6.22266 2.04297 6.22266 3V10C6.25 10.9844 7.01562 11.75 8 11.75H13.25C14.207 11.75 15 10.9844 15 10V3.82031C15 3.57422 14.8906 3.35547 14.7266 3.19141ZM13.6875 10C13.6875 10.2461 13.4688 10.4375 13.25 10.4375H7.97266C7.72656 10.4375 7.53516 10.2461 7.53516 10V3.02734C7.53516 2.78125 7.72656 2.58984 7.97266 2.58984H11.4727L11.5 3.875C11.5 4.36719 11.8828 4.75 12.375 4.75H13.6602V10H13.6875ZM8.4375 13.5C8.4375 13.7461 8.21875 13.9375 8 13.9375H2.72266C2.47656 13.9375 2.28516 13.7461 2.28516 13.5V6.52734C2.28516 6.28125 2.50391 6.08984 2.72266 6.08984H5.375V4.75H2.72266C1.76562 4.75 0.972656 5.54297 0.972656 6.5L1 13.5C1 14.4844 1.76562 15.25 2.75 15.25H8C8.95703 15.25 9.75 14.4844 9.75 13.5V12.625H8.4375V13.5Z" fill="white"/>
</svg>
