<svg width="20" height="16" viewBox="0 0 20 16" fill="none" xmlns="http://www.w3.org/2000/svg">
<path d="M16.375 2.1875C16.375 2.1875 16.375 2.1875 16.3438 2.1875C15.1562 1.625 13.9062 1.25 12.625 1.03125C12.5938 1 12.5625 1.03125 12.5625 1.03125C12.375 1.34375 12.2188 1.6875 12.0938 2C10.6875 1.78125 9.28125 1.78125 7.875 2C7.75 1.6875 7.59375 1.34375 7.40625 1.03125C7.40625 1.03125 7.375 1 7.34375 1.03125C6.0625 1.25 4.8125 1.625 3.625 2.1875C3.59375 2.1875 3.59375 2.1875 3.59375 2.1875C1.21875 5.75 0.5625 9.21875 0.875 12.6562C0.875 12.6562 0.875 12.6875 0.90625 12.6875C2.28125 13.7188 3.84375 14.5 5.5 15C5.5 15.0312 5.53125 15 5.5625 15C5.90625 14.5 6.21875 14 6.5 13.4688C6.5 13.4375 6.5 13.4062 6.46875 13.375C5.96875 13.1875 5.46875 12.9688 5.03125 12.6875C5 12.6875 4.96875 12.625 5.03125 12.5938C5.125 12.5312 5.21875 12.4688 5.3125 12.375C5.3125 12.375 5.34375 12.375 5.375 12.375C8.375 13.75 11.625 13.75 14.5938 12.375C14.625 12.375 14.625 12.375 14.6562 12.375C14.75 12.4688 14.8438 12.5312 14.9375 12.5938C14.9688 12.625 14.9688 12.6875 14.9375 12.6875C14.4688 12.9688 14 13.1875 13.5 13.375C13.4688 13.4062 13.4688 13.4375 13.4688 13.4688C13.75 14 14.0625 14.5 14.4062 15C14.4375 15 14.4375 15.0312 14.4688 15C16.125 14.5 17.6875 13.7188 19.0625 12.6875C19.0938 12.6875 19.0938 12.6562 19.0938 12.6562C19.4688 8.6875 18.4375 5.25 16.375 2.1875ZM6.9375 10.5625C6.03125 10.5625 5.28125 9.71875 5.28125 8.71875C5.28125 7.6875 6.03125 6.875 6.9375 6.875C7.875 6.875 8.59375 7.6875 8.59375 8.71875C8.59375 9.71875 7.84375 10.5625 6.9375 10.5625ZM13.0312 10.5625C12.125 10.5625 11.4062 9.71875 11.4062 8.71875C11.4062 7.6875 12.125 6.875 13.0312 6.875C13.9688 6.875 14.7188 7.6875 14.6875 8.71875C14.6875 9.71875 13.9688 10.5625 13.0312 10.5625Z" fill="#DFDEDE"/>
</svg>
