<svg width="20" height="16" viewBox="0 0 20 16" fill="none" xmlns="http://www.w3.org/2000/svg">
<path d="M10 4.40625C8 4.40625 6.40625 6.03125 6.40625 8C6.40625 10 8 11.5938 10 11.5938C11.9688 11.5938 13.5938 10 13.5938 8C13.5938 6.03125 11.9688 4.40625 10 4.40625ZM10 10.3438C8.71875 10.3438 7.65625 9.3125 7.65625 8C7.65625 6.71875 8.6875 5.6875 10 5.6875C11.2812 5.6875 12.3125 6.71875 12.3125 8C12.3125 9.3125 11.2812 10.3438 10 10.3438ZM14.5625 4.28125C14.5625 4.75 14.1875 5.125 13.7188 5.125C13.25 5.125 12.875 4.75 12.875 4.28125C12.875 3.8125 13.25 3.4375 13.7188 3.4375C14.1875 3.4375 14.5625 3.8125 14.5625 4.28125ZM16.9375 5.125C16.875 4 16.625 3 15.8125 2.1875C15 1.375 14 1.125 12.875 1.0625C11.7188 1 8.25 1 7.09375 1.0625C5.96875 1.125 5 1.375 4.15625 2.1875C3.34375 3 3.09375 4 3.03125 5.125C2.96875 6.28125 2.96875 9.75 3.03125 10.9062C3.09375 12.0312 3.34375 13 4.15625 13.8438C5 14.6562 5.96875 14.9062 7.09375 14.9688C8.25 15.0312 11.7188 15.0312 12.875 14.9688C14 14.9062 15 14.6562 15.8125 13.8438C16.625 13 16.875 12.0312 16.9375 10.9062C17 9.75 17 6.28125 16.9375 5.125ZM15.4375 12.125C15.2188 12.75 14.7188 13.2188 14.125 13.4688C13.1875 13.8438 11 13.75 10 13.75C8.96875 13.75 6.78125 13.8438 5.875 13.4688C5.25 13.2188 4.78125 12.75 4.53125 12.125C4.15625 11.2188 4.25 9.03125 4.25 8C4.25 7 4.15625 4.8125 4.53125 3.875C4.78125 3.28125 5.25 2.8125 5.875 2.5625C6.78125 2.1875 8.96875 2.28125 10 2.28125C11 2.28125 13.1875 2.1875 14.125 2.5625C14.7188 2.78125 15.1875 3.28125 15.4375 3.875C15.8125 4.8125 15.7188 7 15.7188 8C15.7188 9.03125 15.8125 11.2188 15.4375 12.125Z" fill="#F92B5F"/>
</svg>
