<svg width="16" height="16" viewBox="0 0 16 16" fill="none" xmlns="http://www.w3.org/2000/svg">
<path d="M14.8359 12.1523L9.01172 2.19922C8.76562 1.81641 8.38281 1.625 8 1.625C7.58984 1.625 7.20703 1.81641 6.96094 2.19922L1.10938 12.1523C0.699219 12.918 1.24609 13.875 2.14844 13.875H13.8242C14.7266 13.875 15.2734 12.918 14.8359 12.1523ZM2.42188 12.5625L7.97266 3.07422L13.5508 12.5625H2.42188ZM8 9.99219C7.50781 9.99219 7.125 10.375 7.125 10.8398C7.125 11.3047 7.50781 11.6875 8 11.6875C8.46484 11.6875 8.84766 11.3047 8.84766 10.8398C8.84766 10.375 8.46484 9.99219 8 9.99219ZM7.34375 5.78125V8.40625C7.34375 8.78906 7.61719 9.0625 8 9.0625C8.35547 9.0625 8.65625 8.78906 8.65625 8.40625V5.78125C8.65625 5.42578 8.35547 5.125 8 5.125C7.61719 5.125 7.34375 5.42578 7.34375 5.78125Z" fill="white"/>
</svg>
